<svg id="visual" viewBox="0 0 960 540" width="960" height="540" xmlns="http://www.w3.org/2000/svg" xmlns:xlink="http://www.w3.org/1999/xlink" version="1.1"><rect x="0" y="0" width="960" height="540" fill="#f7e7ce"></rect><path d="M0 399L26.7 397.7C53.3 396.3 106.7 393.7 160 387.7C213.3 381.7 266.7 372.3 320 367.7C373.3 363 426.7 363 480 365.3C533.3 367.7 586.7 372.3 640 377.3C693.3 382.3 746.7 387.7 800 392.2C853.3 396.7 906.7 400.3 933.3 402.2L960 404L960 541L933.3 541C906.7 541 853.3 541 800 541C746.7 541 693.3 541 640 541C586.7 541 533.3 541 480 541C426.7 541 373.3 541 320 541C266.7 541 213.3 541 160 541C106.7 541 53.3 541 26.7 541L0 541Z" fill="#28ad79"></path><path d="M0 447L26.7 438.5C53.3 430 106.7 413 160 412.2C213.3 411.3 266.7 426.7 320 431.2C373.3 435.7 426.7 429.3 480 424.5C533.3 419.7 586.7 416.3 640 418.2C693.3 420 746.7 427 800 433C853.3 439 906.7 444 933.3 446.5L960 449L960 541L933.3 541C906.7 541 853.3 541 800 541C746.7 541 693.3 541 640 541C586.7 541 533.3 541 480 541C426.7 541 373.3 541 320 541C266.7 541 213.3 541 160 541C106.7 541 53.3 541 26.7 541L0 541Z" fill="#53c5a8"></path><path d="M0 469L26.7 466C53.3 463 106.7 457 160 452.5C213.3 448 266.7 445 320 447.3C373.3 449.7 426.7 457.3 480 462.7C533.3 468 586.7 471 640 466.7C693.3 462.3 746.7 450.7 800 446.7C853.3 442.7 906.7 446.3 933.3 448.2L960 450L960 541L933.3 541C906.7 541 853.3 541 800 541C746.7 541 693.3 541 640 541C586.7 541 533.3 541 480 541C426.7 541 373.3 541 320 541C266.7 541 213.3 541 160 541C106.7 541 53.3 541 26.7 541L0 541Z" fill="#84dbd0"></path><path d="M0 501L26.7 501.2C53.3 501.3 106.7 501.7 160 498.8C213.3 496 266.7 490 320 485.3C373.3 480.7 426.7 477.3 480 476.7C533.3 476 586.7 478 640 482.7C693.3 487.3 746.7 494.7 800 495.7C853.3 496.7 906.7 491.3 933.3 488.7L960 486L960 541L933.3 541C906.7 541 853.3 541 800 541C746.7 541 693.3 541 640 541C586.7 541 533.3 541 480 541C426.7 541 373.3 541 320 541C266.7 541 213.3 541 160 541C106.7 541 53.3 541 26.7 541L0 541Z" fill="#b9f1f1"></path></svg>